<svg id="Layer_1" data-name="Layer 1" xmlns="http://www.w3.org/2000/svg" viewBox="0 0 55 113"><defs><style>.cls-1{fill-rule:evenodd;}</style></defs><path class="cls-1" d="M84.46,7.5A7.5,7.5,0,0,1,92,15v98a7.5,7.5,0,0,1-7.5,7.5h-40A7.5,7.5,0,0,1,37,113V15a7.5,7.5,0,0,1,7.5-7.5ZM91,15a6.5,6.5,0,0,0-6.5-6.5h-40A6.5,6.5,0,0,0,38,15v98a6.5,6.5,0,0,0,6.5,6.5h40A6.5,6.5,0,0,0,91,113Z" transform="translate(-36.96 -7.5)"/><path class="cls-1" d="M84.46,9.5A5.5,5.5,0,0,1,90,15v98a5.5,5.5,0,0,1-5.5,5.5h-40A5.5,5.5,0,0,1,39,113V15a5.5,5.5,0,0,1,5.5-5.5ZM89,15a4.49,4.49,0,0,0-4.5-4.5h-40A4.5,4.5,0,0,0,40,15v98a4.5,4.5,0,0,0,4.5,4.5h40A4.49,4.49,0,0,0,89,113Z" transform="translate(-36.96 -7.5)"/><path class="cls-1" d="M50,10a.5.5,0,0,1,.5-.5h30V10H81a5.5,5.5,0,0,1-5.5,5.5h-20A5.5,5.5,0,0,1,50,10Zm1,.5a4.5,4.5,0,0,0,4.47,4h20a4.49,4.49,0,0,0,4.47-4Z" transform="translate(-36.96 -7.5)"/></svg>